<svg id="图层_1" data-name="图层 1" xmlns="http://www.w3.org/2000/svg" viewBox="0 0 144 144"><defs><style>.cls-1,.cls-10,.cls-6{fill:#fff;}.cls-2{fill:#999;opacity:0.78;}.cls-3{fill:#8d7f79;}.cls-3,.cls-4{stroke:#715f58;}.cls-4,.cls-7{fill:none;}.cls-11,.cls-5{fill:#696969;}.cls-10,.cls-11,.cls-6,.cls-7{stroke:#696969;}.cls-8{opacity:0.47;}.cls-9{fill:#706a6a;}.cls-10{stroke-width:4px;}</style></defs><title>land-</title><rect class="cls-1" y="1" width="144" height="144"/><path class="cls-2" d="M60,33.57v-.14a3.05,3.05,0,0,1,3.06-3.05h2.23a3.05,3.05,0,0,0,3-3.06v-.14a3,3,0,0,0-3-3.05H48.82a3.06,3.06,0,0,1-3-3.06v-.14a3,3,0,0,1,3-3.05H67.4a3.06,3.06,0,0,0,3.06-3.06v-.14a3.05,3.05,0,0,0-3.06-3H23.92a3.05,3.05,0,0,0-3.06,3v.14a3.06,3.06,0,0,0,3.06,3.06h0a3,3,0,0,1,3,3.05v.14a3.06,3.06,0,0,1-3,3.06H13.13a3.05,3.05,0,0,0-3.06,3.05v.14a3.06,3.06,0,0,0,3.06,3.06h23a3,3,0,0,1,3.05,3.05v.14a3.05,3.05,0,0,1-3.05,3.06h-1.5a3.05,3.05,0,0,0-3.06,3v.14a3.06,3.06,0,0,0,3.06,3.06H70.72a3.06,3.06,0,0,0,3-3.06v-.14a3,3,0,0,0-3-3H63.05A3.06,3.06,0,0,1,60,33.57Z"/><path class="cls-2" d="M136.25,26.17v-.71A2.71,2.71,0,0,1,139,22.75h1.1A2.71,2.71,0,0,0,142.77,20v-.33A2.71,2.71,0,0,0,140.06,17H113.61a2.71,2.71,0,0,0-2.71,2.71V20a2.71,2.71,0,0,0,2.71,2.71h6.85a2.71,2.71,0,0,1,2.71,2.71v.71a2.72,2.72,0,0,1-2.71,2.71h0a2.7,2.7,0,0,0-2.71,2.7v.71A2.71,2.71,0,0,0,120.46,35h25.08a2.71,2.71,0,0,0,2.71-2.71v-.71a2.7,2.7,0,0,0-2.71-2.7H139A2.71,2.71,0,0,1,136.25,26.17Z"/><path class="cls-2" d="M96.17,66.75h0a3.12,3.12,0,0,1,3.12-3.12h7.09a3.13,3.13,0,0,0,3.12-3.13h0a3.12,3.12,0,0,0-3.12-3.12H64.23a3.11,3.11,0,0,0-3.12,3.12h0a3.12,3.12,0,0,0,3.12,3.13H75.87A3.12,3.12,0,0,1,79,66.75h0a3.13,3.13,0,0,1-3.13,3.13H72.21A3.12,3.12,0,0,0,69.08,73h0a3.13,3.13,0,0,0,3.13,3.13h43.34A3.12,3.12,0,0,0,118.67,73h0a3.11,3.11,0,0,0-3.12-3.12H99.29A3.13,3.13,0,0,1,96.17,66.75Z"/><path class="cls-3" d="M6.62,82.19A304.64,304.64,0,0,1,146.4,84.1,17.33,17.33,0,0,1,151,85.72c5.55,3.21,6.06,10.9,5.9,17.31l-1,38.56c-.06,2.32-.2,4.87-1.76,6.58a9.24,9.24,0,0,1-3.6,2.13c-20.09,7.73-42.44,5-63.93,3.91-18.82-.94-37.68-.48-56.53-.32-10.79.1-21.73.09-32.18-2.61a13.84,13.84,0,0,1-5.38-2.35,13.34,13.34,0,0,1-3.35-4.71,51,51,0,0,1-4.52-30.29c1.61-10.08,6.72-21.36,2-31.32-1.3,4.41,5.19,2.55,7.5,2.18C-1.68,84.13,2.47,83.11,6.62,82.19Z"/><path class="cls-4" d="M22.48,85.71a5.14,5.14,0,0,0,2.9-1c.91-.5,2.12-.84,2.94-.2"/><path class="cls-4" d="M110.26,86.23a8.37,8.37,0,0,0,5,.3"/><path class="cls-4" d="M12,135l7.25-1a2.28,2.28,0,0,1,1.19.06c.44.2.7.66,1.07,1a4.16,4.16,0,0,0,2.83.7h7.12"/><path class="cls-4" d="M100.4,129a8.48,8.48,0,0,1,7-.93,30,30,0,0,0,3.3,1.16c2.47.47,5.13-.8,7.49.08.49.18,1,.45,1.46.59s1.33.11,2,.24a1.81,1.81,0,0,1,1.52,1.14"/><path class="cls-4" d="M127.75,109.78c.44.79,1.63.55,2.45.16s1.94-.76,2.5,0a5.43,5.43,0,0,1,.32.51,1.92,1.92,0,0,0,2.11.52c.74-.2,1.41-.63,2.15-.84a3.8,3.8,0,0,1,2.31.08c.5.18,1,.46,1.45.67,1.85.78,4,.46,6,.13"/><path class="cls-4" d="M150.5,94a3.65,3.65,0,0,0-2.8.57,18.93,18.93,0,0,1-2,1.62,2.65,2.65,0,0,1-3.27-.85"/><path class="cls-4" d="M60.86,146.73l8.22-3.93a10.62,10.62,0,0,1,3.83-1.27,11.66,11.66,0,0,1,4.43.94,57.17,57.17,0,0,0,37-.32"/><path class="cls-4" d="M-2.46,103.62a24.78,24.78,0,0,1,5.64-1.76,4.27,4.27,0,0,1,1.63-.07c1.2.24,2,1.33,2.86,2.21s2.2,1.61,3.26,1"/><path class="cls-4" d="M76.55,79.13a8.22,8.22,0,0,1,4.2-.38"/><path class="cls-4" d="M142.09,125.45a9.24,9.24,0,0,1,8.84.91"/><path class="cls-4" d="M60.45,103.46c0,.46.57.69,1,.77a9,9,0,0,0,6.57-1.44c.83-.57,1.74-1.31,2.7-1,.67.19,1.1.82,1.63,1.28,1.73,1.48,4.36.92,6.55.29"/><path class="cls-4" d="M86.3,119.86l5.33-2.51A2.46,2.46,0,0,1,92.7,117a6,6,0,0,1,1.34.43c1.33.38,2.72-.64,4.09-.44,1.15.17,2.4,1.16,3.32.45"/><path class="cls-4" d="M111,98.73c1.4.43,2.89-1.23,4.22-.64a9,9,0,0,1,1,.65c1.43.83,3.17-.39,4.82-.45"/><path class="cls-4" d="M40.11,119.87a7,7,0,0,0,6.49,1.34c1.33-.42,2.63-1.26,4-1,1,.18,1.86.94,2.84,1.3,1.87.69,4-.14,5.93.32,1.58.37,3.15,1.59,4.66,1"/><path class="cls-4" d="M37.71,98.68c3-.93,6.4.69,9.4-.28"/><path class="cls-4" d="M89.58,87.42a9.36,9.36,0,0,1,6.94-.23"/><path class="cls-4" d="M51.52,79.32c1.95,1.09,4.53-1.31,6.51-.27"/><path class="cls-4" d="M130.27,88.9l3.95,1"/><path class="cls-1" d="M10.7,131.65a170.83,170.83,0,0,1,5.06-28.76,50.36,50.36,0,0,0,16.07,3.41,40,40,0,0,0,10.2-.85c.55,8.34,2.73,16.89,5.38,25.21,1.56,4.9,3.28,9.71,4.92,14.36a14.8,14.8,0,0,1,1.15,5.46,5.21,5.21,0,0,1-2.69,4.6,5.27,5.27,0,0,1-4.43-.28,7.87,7.87,0,0,1-3.58-3.61c-.59-1.22-.9-2.66-2-3.53a6,6,0,0,0-3.93-.92H30.73c-2.71,0-5.56,0-7.9,1.42S22.05,152,20.42,155c-3.15,1-7.26,1.62-9.15-1.08a7.84,7.84,0,0,1-1-4.23A150.13,150.13,0,0,1,10.7,131.65Z"/><path class="cls-5" d="M12.2,131.65a180.5,180.5,0,0,1,5-28.36l-1.84,1a50,50,0,0,0,27.07,2.56l-1.9-1.45c.82,10.37,3.62,20.35,6.94,30.17.91,2.69,1.86,5.37,2.79,8a26.25,26.25,0,0,1,1.21,3.53l.35,4.27-6.48.76c-1.59-.91-1.8-3.78-3-5.11a5.66,5.66,0,0,0-3.62-1.79,43.81,43.81,0,0,0-11.44,0c-2.77.31-5.78,1-7,3.74-.6,1.34,0,3.38-1.06,4.43-3.38,3.5-7.1-2.48-7.46-5.67-.6-5.26.06-11,.48-16.22.15-1.93-2.85-1.92-3,0-.5,6.32-1.32,13.44-.3,19.75.54,3.35,2.39,5.53,5.87,5.9,1.69.17,4.62.1,6.05-.82s1.15-2.31,1.88-3.88c2.25-4.88,5.26-4.35,9.57-4.36a22.39,22.39,0,0,1,4.63,0c4.57,1,3.51,2.34,5.25,4.82,4.71,6.74,14,3.62,12.65-4.84-1.09-6.65-4.52-13.29-6.5-19.75a106.59,106.59,0,0,1-4.77-23,1.53,1.53,0,0,0-1.9-1.45c-8.68,1.69-17.23.46-25.48-2.56a1.52,1.52,0,0,0-1.84,1A186,186,0,0,0,9.2,131.65C9,133.57,12,133.56,12.2,131.65Z"/><path class="cls-1" d="M41.54,105.38a35,35,0,0,0,6.14-1.94c10.21-4.32,18.2-14.53,18-25.61-.09-5.6-2.15-11-2.4-16.61-.1-2.09-3.79-11-6-13-4.25-3.68-8.6-7.42-13.78-9.61C33,34.2,20.77,36.92,10.24,41.4c-14.61,6.21-16.09,21-14.41,35.34C-3.22,85,.23,93.25,6.8,98.3a33.8,33.8,0,0,0,8.47,4.52C23.59,106,32.9,107.26,41.54,105.38Z"/><path class="cls-5" d="M41.94,106.82c15-3.62,27-16.63,25-32.7-.9-7-1.77-14.27-4.75-20.75S53.5,42.31,47.31,38.84c-7.45-4.17-16-4.65-24.24-3.07-7.51,1.44-16.2,4.17-21.7,9.77C-7.95,55.05-7.81,72.06-4.2,84c5.83,19.33,27.69,26.37,46.14,22.8,1.89-.36,1.09-3.26-.8-2.89a45.18,45.18,0,0,1-30.92-5.14C1.43,93.52-2.1,83.8-2.95,74.05c-.6-6.89-.51-14.33,2.51-20.7,4-8.3,12.5-11.73,20.92-13.92C31,36.7,41.12,37.66,50,44.19c5.81,4.26,10,9,11.63,16.26,1.92,8.83,4.3,19.15.23,27.66S50,101.79,41.14,103.93C39.27,104.38,40.06,107.28,41.94,106.82Z"/><path class="cls-6" d="M18.44,68.64A11.68,11.68,0,0,1,27,63.15a7.68,7.68,0,0,1,2.53.08,7.73,7.73,0,0,1,5.25,5.18,20,20,0,0,1,.66,7.64c-.12,2-.33,4.09-1.53,5.69a9.24,9.24,0,0,1-4.16,2.74c-2.6,1-5.65,1.68-8.11.35C16.43,82.05,15.72,73.16,18.44,68.64Z"/><path class="cls-7" d="M48.31,72.88A8,8,0,0,1,48.72,68a10.26,10.26,0,0,1,1-1.62c1-1.38,2.15-2.75,3.62-3.18,2.13-.62,4.38,1,5.56,3.2A18.77,18.77,0,0,1,60.58,74c.17,2.81,0,6.09-1.89,7.74a4.47,4.47,0,0,1-1.46.84,5.31,5.31,0,0,1-5-.65C50.19,80.42,48.87,75.64,48.31,72.88Z"/><path class="cls-7" d="M34.82,55.82c-.16,1.62-2,2.47-3.52,3-2.17.74-11.59,3.54-13.76,4.27"/><g class="cls-8"><path class="cls-9" d="M10.33,35.86v-27l-1.5,1.5H36.12a1.5,1.5,0,0,0,0-3H8.83a1.52,1.52,0,0,0-1.5,1.5v27a1.5,1.5,0,0,0,3,0Z"/><path class="cls-9" d="M36.12,133.67H8.83l1.5,1.5v-27a1.5,1.5,0,0,0-3,0v27a1.52,1.52,0,0,0,1.5,1.5H36.12a1.5,1.5,0,0,0,0-3Z"/><path class="cls-9" d="M133.67,108v27.19l1.5-1.5H107.78a1.5,1.5,0,0,0,0,3h27.39a1.52,1.52,0,0,0,1.5-1.5V108a1.5,1.5,0,0,0-3,0Z"/><path class="cls-9" d="M107.78,10.33h27.39l-1.5-1.5v27a1.5,1.5,0,0,0,3,0v-27a1.52,1.52,0,0,0-1.5-1.5H107.78a1.5,1.5,0,0,0,0,3Z"/><path class="cls-9" d="M84.23,72C83.87,65.36,78.92,59.77,72,59.77a12.22,12.22,0,0,0-.58,24.43c7.15.33,12.44-5.33,12.81-12.2.1-1.93-2.9-1.92-3,0-.64,11.82-18.46,11.93-18.46,0s17.82-11.83,18.46,0C81.33,73.92,84.33,73.93,84.23,72Z"/></g><path class="cls-10" d="M149.48,93.32A320.49,320.49,0,0,1,100,92.11a4.77,4.77,0,0,1-2.83-.93,5.37,5.37,0,0,1-1.31-3,150.25,150.25,0,0,1-.78-51.42c6-1.63,12.17-1.65,18.32-1.66L138,35a73.92,73.92,0,0,0,13.7-.6c.83,6.63.55,2.92.41,9.5C152.34,48.2,152.66,93.32,149.48,93.32Z"/><path class="cls-10" d="M141.77,137a2.92,2.92,0,0,1-.68,2.12,2.43,2.43,0,0,1-1.13.48,8.41,8.41,0,0,1-4.69.09,3.79,3.79,0,0,1-2.65-3.67c.12-1.38,1.08-3,.1-3.93a2.33,2.33,0,0,0-1.6-.43l-21.43-.39A5.91,5.91,0,0,1,108,137a4,4,0,0,1-5.43-.24c-1.82-2.06-.92-5.35,0-8A248.73,248.73,0,0,0,112,96.31a2.51,2.51,0,0,1,.77-1.58,2.19,2.19,0,0,1,1.29-.28c6-.08,12.2-.66,18.17-.25,5.18.36,5.44,2.79,6.56,7.92C141.37,113.74,141.77,125.15,141.77,137Z"/><path class="cls-7" d="M104.27,81c2.76,1.42,6.14.83,9-.42s5.36-3.14,8.19-4.39a21,21,0,0,1,15.64-.46"/><path class="cls-7" d="M137.36,49.36a5.66,5.66,0,0,0-3.33,1.3L115.86,63c-.44.3-1,.6-1.47.33a1.35,1.35,0,0,1-.48-.6l-1-1.89"/><path class="cls-7" d="M95.94,52.82a95.38,95.38,0,0,0,7,10,1.59,1.59,0,0,0,.67.58c.8.26,1.33-1.08,1.54-2.16"/><circle class="cls-11" cx="119.24" cy="64.8" r="2.68"/><ellipse class="cls-11" cx="100.81" cy="64.39" rx="1.95" ry="2.29"/><path class="cls-7" d="M53.2,51a1.07,1.07,0,0,0,.36,1.22,3.21,3.21,0,0,0,1.24.54l6.07,1.63"/></svg>